<?xml version="1.0" encoding="UTF-8" standalone="no"?>
<!DOCTYPE svg PUBLIC "-//W3C//DTD SVG 1.0//EN" "http://www.w3.org/TR/2001/REC-SVG-20010904/DTD/svg10.dtd">
<!-- Generated by Microsoft Visio 11.0, SVG Export, v1.0 kliens-szerver.svg Page-1 -->
<svg xmlns="http://www.w3.org/2000/svg" xmlns:v="http://schemas.microsoft.com/visio/2003/SVGExtensions/" width="3.67645in"
		height="2.21803in" viewBox="0 0 264.705 159.698" xml:space="preserve" color-interpolation-filters="sRGB" class="st33">
	<v:documentProperties v:langID="1033" v:metric="true" v:viewMarkup="false"/>

	<style type="text/css">
	<![CDATA[
		.st1 {stroke:#000000;stroke-linecap:round;stroke-linejoin:round;stroke-width:0.72}
		.st2 {fill:#ff00ff;fill-opacity:0;stroke:#000000;stroke-linecap:round;stroke-linejoin:round;stroke-opacity:0;stroke-width:0.72}
		.st3 {fill:url(#grad31-13);stroke:#ffffff;stroke-linecap:round;stroke-linejoin:round;stroke-width:0.72}
		.st4 {fill:url(#grad30-19);stroke:#ffffff;stroke-linecap:round;stroke-linejoin:round;stroke-width:0.72}
		.st5 {fill:url(#grad32-41);stroke:#000000;stroke-linecap:round;stroke-linejoin:round;stroke-width:0.72}
		.st6 {fill:#ffffff;stroke:none;stroke-linecap:round;stroke-linejoin:round;stroke-width:0.24}
		.st7 {fill:#969696;stroke:none;stroke-linecap:round;stroke-linejoin:round;stroke-width:0.24}
		.st8 {fill:#808080;stroke:#808080;stroke-linecap:round;stroke-linejoin:round;stroke-width:0.36}
		.st9 {fill:url(#grad32-41)}
		.st10 {stroke:#ffffff;stroke-linecap:round;stroke-linejoin:round;stroke-width:0.72}
		.st11 {fill:none;stroke:#000000;stroke-linecap:round;stroke-linejoin:round;stroke-width:1.5}
		.st12 {fill:#000000;stroke:#000000;stroke-linecap:round;stroke-linejoin:round;stroke-width:0.12}
		.st13 {fill:#b3b3b3;fill-opacity:0.6;stroke:#000000;stroke-linecap:round;stroke-linejoin:round;stroke-width:0.24}
		.st14 {stroke:#000000;stroke-linecap:round;stroke-linejoin:round;stroke-width:0.36}
		.st15 {stroke:#ffffff;stroke-linecap:round;stroke-linejoin:round;stroke-width:0.36}
		.st16 {fill:url(#grad40-87);stroke:#000000;stroke-linecap:round;stroke-linejoin:round;stroke-width:0.12}
		.st17 {fill:url(#grad35-91);stroke:#000000;stroke-linecap:round;stroke-linejoin:round;stroke-width:0.72}
		.st18 {fill:#ffffff;stroke:#000000;stroke-linecap:round;stroke-linejoin:round;stroke-width:3.12}
		.st19 {fill:url(#grad30-104)}
		.st20 {fill:url(#grad32-109)}
		.st21 {fill:url(#grad31-116);stroke:#ffffff;stroke-linecap:round;stroke-linejoin:round;stroke-width:0.36}
		.st22 {stroke:#000000;stroke-linecap:round;stroke-linejoin:round;stroke-width:1}
		.st23 {fill:url(#grad31-125);stroke:#000000;stroke-linecap:round;stroke-linejoin:round;stroke-width:0.36}
		.st24 {stroke:#000000;stroke-linecap:round;stroke-linejoin:round;stroke-width:0.6}
		.st25 {fill:#000000;stroke:#000000;stroke-linecap:round;stroke-linejoin:round;stroke-width:0.36}
		.st26 {fill:url(#grad34-141);stroke:#ffffff;stroke-linecap:round;stroke-linejoin:round;stroke-width:0.12}
		.st27 {fill:url(#grad35-146);stroke:none;stroke-linecap:round;stroke-linejoin:round;stroke-width:0.12}
		.st28 {fill:#000000;stroke:none;stroke-linecap:round;stroke-linejoin:round;stroke-width:0.24}
		.st29 {fill:url(#grad36-165)}
		.st30 {stroke:#000000;stroke-linecap:round;stroke-linejoin:round;stroke-width:0.72;visibility:hidden}
		.st31 {fill:#00ff00;fill-opacity:0.7}
		.st32 {fill:#000000;visibility:hidden}
		.st33 {fill:none;fill-rule:evenodd;font-size:12;overflow:visible;stroke-linecap:square;stroke-miterlimit:3}
	]]>
	</style>

	<defs id="Patterns_And_Gradients">
		<pattern id="grad31-13" v:fillPattern="31" v:foreground="#ffffff" v:background="#a7a7a7" x="0" y="0" width="1" height="1"
				patternContentUnits="objectBoundingBox">
			<path d="M 0 0 L 0 1 L 1 1 z" style="fill:url(#grad28-14)"/>
			<path d="M 0 0 L 1 0 L 1 1 z" style="fill:url(#grad25-15)"/>
		</pattern>
		<linearGradient id="grad28-14" v:fillPattern="31" v:foreground="#ffffff" v:background="#a7a7a7" x1="0" y1="0" x2="0" y2="1">
			<stop offset="0" style="stop-color:#ffffff;stop-opacity:1"/>
			<stop offset="1" style="stop-color:#a7a7a7;stop-opacity:1"/>
		</linearGradient>
		<linearGradient id="grad25-15" v:fillPattern="31" v:foreground="#ffffff" v:background="#a7a7a7" x1="0" y1="0" x2="1" y2="0">
			<stop offset="0" style="stop-color:#ffffff;stop-opacity:1"/>
			<stop offset="1" style="stop-color:#a7a7a7;stop-opacity:1"/>
		</linearGradient>
		<linearGradient id="grad30-19" v:fillPattern="30" v:foreground="#ffffff" v:background="#dfdfdf" x1="0" y1="1" x2="0" y2="0">
			<stop offset="0" style="stop-color:#ffffff;stop-opacity:1"/>
			<stop offset="1" style="stop-color:#dfdfdf;stop-opacity:1"/>
		</linearGradient>
		<pattern id="grad32-41" v:fillPattern="32" v:foreground="#ffffff" v:background="#c0c0c0" x="0" y="0" width="1" height="1"
				patternContentUnits="objectBoundingBox">
			<path d="M 0 1 L 0 0 L 1 0 z" style="fill:url(#grad27-42)"/>
			<path d="M 0 1 L 1 1 L 1 0 z" style="fill:url(#grad28-43)"/>
		</pattern>
		<linearGradient id="grad27-42" v:fillPattern="32" v:foreground="#ffffff" v:background="#c0c0c0" x1="1" y1="0" x2="0" y2="0">
			<stop offset="0" style="stop-color:#ffffff;stop-opacity:1"/>
			<stop offset="1" style="stop-color:#c0c0c0;stop-opacity:1"/>
		</linearGradient>
		<linearGradient id="grad28-43" v:fillPattern="32" v:foreground="#ffffff" v:background="#c0c0c0" x1="0" y1="0" x2="0" y2="1">
			<stop offset="0" style="stop-color:#ffffff;stop-opacity:1"/>
			<stop offset="1" style="stop-color:#c0c0c0;stop-opacity:1"/>
		</linearGradient>
		<radialGradient id="grad40-87" v:fillPattern="40" v:foreground="#ffffff" v:background="#008000" cx="0.5" cy="0.5" r="0.5">
			<stop offset="0" style="stop-color:#ffffff;stop-opacity:1"/>
			<stop offset="1" style="stop-color:#008000;stop-opacity:1"/>
		</radialGradient>
		<pattern id="grad35-91" v:fillPattern="35" v:foreground="#ffffff" v:background="#c6d1e3" x="0" y="0" width="1" height="1"
				patternContentUnits="objectBoundingBox">
			<path d="M 0.5 0.5 L 0 0 L 0 1 z" style="fill:url(#grad27-92)"/>
			<path d="M 0.5 0.5 L 1 0 L 1 1 z" style="fill:url(#grad25-93)"/>
			<path d="M 0.5 0.5 L 0 0 L 1 0 z" style="fill:url(#grad30-94)"/>
			<path d="M 0.5 0.5 L 0 1 L 1 1 z" style="fill:url(#grad28-95)"/>
		</pattern>
		<linearGradient id="grad27-92" v:fillPattern="35" v:foreground="#ffffff" v:background="#c6d1e3" x1="1" y1="0" x2="0" y2="0">
			<stop offset="0" style="stop-color:#ffffff;stop-opacity:1"/>
			<stop offset="1" style="stop-color:#c6d1e3;stop-opacity:1"/>
		</linearGradient>
		<linearGradient id="grad25-93" v:fillPattern="35" v:foreground="#ffffff" v:background="#c6d1e3" x1="0" y1="0" x2="1" y2="0">
			<stop offset="0" style="stop-color:#ffffff;stop-opacity:1"/>
			<stop offset="1" style="stop-color:#c6d1e3;stop-opacity:1"/>
		</linearGradient>
		<linearGradient id="grad30-94" v:fillPattern="35" v:foreground="#ffffff" v:background="#c6d1e3" x1="0" y1="1" x2="0" y2="0">
			<stop offset="0" style="stop-color:#ffffff;stop-opacity:1"/>
			<stop offset="1" style="stop-color:#c6d1e3;stop-opacity:1"/>
		</linearGradient>
		<linearGradient id="grad28-95" v:fillPattern="35" v:foreground="#ffffff" v:background="#c6d1e3" x1="0" y1="0" x2="0" y2="1">
			<stop offset="0" style="stop-color:#ffffff;stop-opacity:1"/>
			<stop offset="1" style="stop-color:#c6d1e3;stop-opacity:1"/>
		</linearGradient>
		<linearGradient id="grad30-104" v:fillPattern="30" v:foreground="#ffffff" v:background="#e1d8c1" x1="0" y1="1" x2="0"
				y2="0">
			<stop offset="0" style="stop-color:#ffffff;stop-opacity:1"/>
			<stop offset="1" style="stop-color:#e1d8c1;stop-opacity:1"/>
		</linearGradient>
		<pattern id="grad32-109" v:fillPattern="32" v:foreground="#ffffff" v:background="#c9ba96" x="0" y="0" width="1" height="1"
				patternContentUnits="objectBoundingBox">
			<path d="M 0 1 L 0 0 L 1 0 z" style="fill:url(#grad27-110)"/>
			<path d="M 0 1 L 1 1 L 1 0 z" style="fill:url(#grad28-111)"/>
		</pattern>
		<linearGradient id="grad27-110" v:fillPattern="32" v:foreground="#ffffff" v:background="#c9ba96" x1="1" y1="0" x2="0"
				y2="0">
			<stop offset="0" style="stop-color:#ffffff;stop-opacity:1"/>
			<stop offset="1" style="stop-color:#c9ba96;stop-opacity:1"/>
		</linearGradient>
		<linearGradient id="grad28-111" v:fillPattern="32" v:foreground="#ffffff" v:background="#c9ba96" x1="0" y1="0" x2="0"
				y2="1">
			<stop offset="0" style="stop-color:#ffffff;stop-opacity:1"/>
			<stop offset="1" style="stop-color:#c9ba96;stop-opacity:1"/>
		</linearGradient>
		<pattern id="grad31-116" v:fillPattern="31" v:foreground="#ffffff" v:background="#b6a06d" x="0" y="0" width="1" height="1"
				patternContentUnits="objectBoundingBox">
			<path d="M 0 0 L 0 1 L 1 1 z" style="fill:url(#grad28-117)"/>
			<path d="M 0 0 L 1 0 L 1 1 z" style="fill:url(#grad25-118)"/>
		</pattern>
		<linearGradient id="grad28-117" v:fillPattern="31" v:foreground="#ffffff" v:background="#b6a06d" x1="0" y1="0" x2="0"
				y2="1">
			<stop offset="0" style="stop-color:#ffffff;stop-opacity:1"/>
			<stop offset="1" style="stop-color:#b6a06d;stop-opacity:1"/>
		</linearGradient>
		<linearGradient id="grad25-118" v:fillPattern="31" v:foreground="#ffffff" v:background="#b6a06d" x1="0" y1="0" x2="1"
				y2="0">
			<stop offset="0" style="stop-color:#ffffff;stop-opacity:1"/>
			<stop offset="1" style="stop-color:#b6a06d;stop-opacity:1"/>
		</linearGradient>
		<pattern id="grad31-125" v:fillPattern="31" v:foreground="#ffffff" v:background="#339966" x="0" y="0" width="1" height="1"
				patternContentUnits="objectBoundingBox">
			<path d="M 0 0 L 0 1 L 1 1 z" style="fill:url(#grad28-126)"/>
			<path d="M 0 0 L 1 0 L 1 1 z" style="fill:url(#grad25-127)"/>
		</pattern>
		<linearGradient id="grad28-126" v:fillPattern="31" v:foreground="#ffffff" v:background="#339966" x1="0" y1="0" x2="0"
				y2="1">
			<stop offset="0" style="stop-color:#ffffff;stop-opacity:1"/>
			<stop offset="1" style="stop-color:#339966;stop-opacity:1"/>
		</linearGradient>
		<linearGradient id="grad25-127" v:fillPattern="31" v:foreground="#ffffff" v:background="#339966" x1="0" y1="0" x2="1"
				y2="0">
			<stop offset="0" style="stop-color:#ffffff;stop-opacity:1"/>
			<stop offset="1" style="stop-color:#339966;stop-opacity:1"/>
		</linearGradient>
		<linearGradient id="grad30-131" v:fillPattern="30" v:foreground="#ffffff" v:background="#e7e4cd" x1="0" y1="1" x2="0"
				y2="0">
			<stop offset="0" style="stop-color:#ffffff;stop-opacity:1"/>
			<stop offset="1" style="stop-color:#e7e4cd;stop-opacity:1"/>
		</linearGradient>
		<pattern id="grad34-141" v:fillPattern="34" v:foreground="#ffffff" v:background="#e7e4cd" x="0" y="0" width="1" height="1"
				patternContentUnits="objectBoundingBox">
			<path d="M 0 0 L 1 0 L 1 1 z" style="fill:url(#grad30-131)"/>
			<path d="M 0 0 L 0 1 L 1 1 z" style="fill:url(#grad27-142)"/>
		</pattern>
		<linearGradient id="grad27-142" v:fillPattern="34" v:foreground="#ffffff" v:background="#e7e4cd" x1="1" y1="0" x2="0"
				y2="0">
			<stop offset="0" style="stop-color:#ffffff;stop-opacity:1"/>
			<stop offset="1" style="stop-color:#e7e4cd;stop-opacity:1"/>
		</linearGradient>
		<pattern id="grad35-146" v:fillPattern="35" v:foreground="#000000" v:foregroundOpacity="0.4" v:background="#e7e4cd"
				v:backgroundOpacity="0.4" x="0" y="0" width="1" height="1" patternContentUnits="objectBoundingBox">
			<path d="M 0.5 0.5 L 0 0 L 0 1 z" style="fill:url(#grad27-147)"/>
			<path d="M 0.5 0.5 L 1 0 L 1 1 z" style="fill:url(#grad25-148)"/>
			<path d="M 0.5 0.5 L 0 0 L 1 0 z" style="fill:url(#grad30-149)"/>
			<path d="M 0.5 0.5 L 0 1 L 1 1 z" style="fill:url(#grad28-150)"/>
		</pattern>
		<linearGradient id="grad27-147" v:fillPattern="35" v:foreground="#000000" v:foregroundOpacity="0.4" v:background="#e7e4cd"
				v:backgroundOpacity="0.4" x1="1" y1="0" x2="0" y2="0">
			<stop offset="0" style="stop-color:#000000;stop-opacity:0.4"/>
			<stop offset="1" style="stop-color:#e7e4cd;stop-opacity:0.4"/>
		</linearGradient>
		<linearGradient id="grad25-148" v:fillPattern="35" v:foreground="#000000" v:foregroundOpacity="0.4" v:background="#e7e4cd"
				v:backgroundOpacity="0.4" x1="0" y1="0" x2="1" y2="0">
			<stop offset="0" style="stop-color:#000000;stop-opacity:0.4"/>
			<stop offset="1" style="stop-color:#e7e4cd;stop-opacity:0.4"/>
		</linearGradient>
		<linearGradient id="grad30-149" v:fillPattern="35" v:foreground="#000000" v:foregroundOpacity="0.4" v:background="#e7e4cd"
				v:backgroundOpacity="0.4" x1="0" y1="1" x2="0" y2="0">
			<stop offset="0" style="stop-color:#000000;stop-opacity:0.4"/>
			<stop offset="1" style="stop-color:#e7e4cd;stop-opacity:0.4"/>
		</linearGradient>
		<linearGradient id="grad28-150" v:fillPattern="35" v:foreground="#000000" v:foregroundOpacity="0.4" v:background="#e7e4cd"
				v:backgroundOpacity="0.4" x1="0" y1="0" x2="0" y2="1">
			<stop offset="0" style="stop-color:#000000;stop-opacity:0.4"/>
			<stop offset="1" style="stop-color:#e7e4cd;stop-opacity:0.4"/>
		</linearGradient>
		<radialGradient id="grad36-165" v:fillPattern="36" v:foreground="#ffffff" v:background="#0000ff" cx="0" cy="0" r="1">
			<stop offset="0" style="stop-color:#ffffff;stop-opacity:1"/>
			<stop offset="1" style="stop-color:#0000ff;stop-opacity:1"/>
		</radialGradient>
	</defs>
	<g v:mID="0" v:index="1" v:groupContext="foregroundPage">
		<title>Page-1</title>
		<v:pageProperties v:drawingScale="0.0393701" v:pageScale="0.0393701" v:drawingUnits="24" v:shadowOffsetX="8.50394"
				v:shadowOffsetY="-8.50394"/>
		<v:layer v:name="Connector" v:index="0"/>
		<g id="shape49-1" v:mID="49" v:groupContext="shape" v:layerMember="0" transform="translate(184.335,-45.4761)">
			<title>Dynamic connector.49</title>
			<path d="M0 159.7 L46.77 159.7 L46.77 95.65" class="st1"/>
		</g>
		<g id="shape48-4" v:mID="48" v:groupContext="shape" v:layerMember="0" transform="translate(36.9331,-116.179)">
			<title>Dynamic connector</title>
			<path d="M0 159.7 L0 230.4 L34.02 230.4" class="st1"/>
		</g>
		<g id="group11-7" transform="translate(1.5,-80.7457)" v:mID="11" v:groupContext="group">
			<v:custProps>
				<v:cp v:nameU="Manufacturer" v:lbl="Manufacturer" v:type="0" v:sortKey="Equipment" v:invis="false" v:ask="false"
						v:langID="1033"/>
				<v:cp v:nameU="ProductNumber" v:lbl="Product Number" v:type="0" v:sortKey="Equipment" v:invis="false" v:ask="false"
						v:langID="1033"/>
				<v:cp v:nameU="PartNumber" v:lbl="Part Number" v:type="0" v:sortKey="Equipment" v:invis="false" v:ask="false"
						v:langID="1033"/>
				<v:cp v:nameU="ProductDescription" v:lbl="Product Description" v:type="0" v:sortKey="Equipment" v:invis="false"
						v:ask="false" v:langID="1033"/>
				<v:cp v:nameU="AssetNumber" v:lbl="Asset Number" v:type="0" v:sortKey="Asset" v:invis="false" v:ask="false"
						v:langID="1033"/>
				<v:cp v:nameU="SerialNumber" v:lbl="Serial Number" v:type="0" v:sortKey="Asset" v:invis="false" v:ask="false"
						v:langID="1033"/>
				<v:cp v:nameU="Location" v:lbl="Location" v:type="0" v:sortKey="Asset" v:invis="false" v:ask="false"
						v:langID="1033"/>
				<v:cp v:nameU="Building" v:lbl="Building" v:type="0" v:sortKey="Asset" v:invis="false" v:ask="false"
						v:langID="1033"/>
				<v:cp v:nameU="Room" v:lbl="Room" v:type="0" v:sortKey="Asset" v:invis="false" v:ask="false" v:langID="1033"/>
				<v:cp v:nameU="Department" v:lbl="Department" v:type="0" v:invis="false" v:ask="false" v:langID="1033"/>
				<v:cp v:nameU="NetworkName" v:lbl="Network Name" v:type="0" v:sortKey="Network" v:invis="false" v:ask="false"
						v:langID="1033"/>
				<v:cp v:nameU="IPAddress" v:lbl="IP Address" v:type="0" v:sortKey="Network" v:invis="false" v:ask="false"
						v:langID="1033"/>
				<v:cp v:nameU="SubnetMask" v:lbl="Subnet Mask" v:type="0" v:sortKey="Network" v:invis="false" v:ask="false"
						v:langID="1033"/>
				<v:cp v:nameU="AdminInterface" v:lbl="Administrative Interface" v:type="0" v:sortKey="Network" v:invis="false"
						v:ask="false" v:langID="1033"/>
				<v:cp v:nameU="NumberofPorts" v:lbl="Number of Ports" v:type="0" v:sortKey="Network" v:invis="false" v:ask="false"
						v:langID="1033"/>
				<v:cp v:nameU="CommunityString" v:lbl="Community String" v:type="0" v:sortKey="Network" v:invis="false"
						v:ask="false" v:langID="1033"/>
				<v:cp v:nameU="NetworkDescription" v:lbl="Network Description" v:type="0" v:sortKey="Network" v:invis="false"
						v:ask="false" v:langID="1033"/>
				<v:cp v:nameU="CPU" v:lbl="CPU" v:type="0" v:sortKey="Workstation" v:invis="false" v:ask="false" v:langID="1033"/>
				<v:cp v:nameU="Memory" v:lbl="Memory" v:type="0" v:sortKey="Workstation" v:invis="false" v:ask="false"
						v:langID="1033"/>
				<v:cp v:nameU="OperatingSystem" v:lbl="Operating System" v:type="0" v:sortKey="Workstation" v:invis="false"
						v:ask="false" v:langID="1033"/>
				<v:cp v:nameU="BelongsTo" v:lbl="Belongs To" v:type="0" v:invis="true" v:ask="false" v:langID="1033"/>
				<v:cp v:nameU="ShapeClass" v:lbl="ShapeClass" v:type="0" v:invis="true" v:ask="false" v:langID="1033"
						v:val="VT4(Equipment)"/>
				<v:cp v:nameU="ShapeType" v:lbl="ShapeType" v:type="0" v:invis="true" v:ask="false" v:langID="1033"
						v:val="VT4(Computer)"/>
				<v:cp v:nameU="SubShapeType" v:lbl="SubShapeType" v:type="0" v:invis="true" v:ask="false" v:langID="1033"
						v:val="VT4(Desktop)"/>
				<v:cp v:nameU="MACAddress" v:lbl="MAC Address" v:type="0" v:sortKey="Network" v:invis="false" v:ask="false"
						v:langID="1033"/>
				<v:cp v:nameU="HardDriveSize" v:lbl="Hard Drive Capacity" v:type="0" v:sortKey="Workstation" v:invis="false"
						v:ask="false" v:langID="1033"/>
			</v:custProps>
			<v:userDefs>
				<v:ud v:nameU="HasText" v:val="VT0(0):5"/>
				<v:ud v:nameU="ShapeClass" v:val="VT0(5):26"/>
				<v:ud v:nameU="ShapeType" v:val="VT0(6):26"/>
				<v:ud v:nameU="SubShapeType" v:val="VT0(17):26"/>
				<v:ud v:nameU="SolSH" v:val="VT14({BF0433D9-CD73-4EB5-8390-8653BE590246}):41"/>
				<v:ud v:nameU="visLegendShape" v:val="VT0(2):26"/>
				<v:ud v:nameU="visVersion" v:prompt="" v:val="VT0(12):26"/>
			</v:userDefs>
			<title>PC</title>
			<g id="shape12-8" v:mID="12" v:groupContext="shape">
				<title>Sheet.12</title>
				<path d="M62.61 115.15 L62.61 99.91 L45.18 89.76 L37.15 92.06 L31.65 88.83 L25.23 91.37 L25.23 115.46 L19.15 119.07
							 L19.15 130.15 A61.6634 62.0652 -180 0 0 45.87 145.62 L70.87 131.07 L70.87 119.99 L62.61 115.15 Z M0
							 140.77 L0 144 L27.06 159.7 L39.68 152.31 L39.68 148.16 L12.16 132.23 L0 140.77 Z" class="st2"/>
			</g>
			<g id="shape13-10" v:mID="13" v:groupContext="shape" transform="translate(27.0622,-5.68434E-014)">
				<title>Sheet.13</title>
				<path d="M0 159.7 L0 156.5 L12.61 148.16 L12.61 152.31 L0 159.7 Z" class="st3"/>
			</g>
			<g id="shape14-16" v:mID="14" v:groupContext="shape" transform="translate(3.43725E-013,-3.20229)">
				<title>Sheet.14</title>
				<path d="M0 143.97 L12.16 135.43 L39.68 151.36 L27.06 159.7 L0 143.97 Z" class="st4"/>
			</g>
			<g id="shape15-20" v:mID="15" v:groupContext="shape" transform="translate(19.1499,-25.1768)">
				<title>Sheet.15</title>
				<path d="M26.72 159.7 L51.72 145.17 L24.88 129.48 L0 144.25 A63.0565 63.4673 -180 0 0 26.72 159.7 Z" class="st4"/>
			</g>
			<g id="shape16-23" v:mID="16" v:groupContext="shape" transform="translate(47.7028,-29.5468)">
				<title>Sheet.16</title>
				<path d="M0 159.7 L0 133.84 L5.25 130.77 L5.05 155.31 L0 159.7 Z" class="st3"/>
			</g>
			<g id="shape17-26" v:mID="17" v:groupContext="shape" transform="translate(52.7483,-36.4718)">
				<title>Sheet.17</title>
				<path d="M0.19 140.11 L9.86 136.38 L9.86 151.62 L0 159.7 L0.19 140.11 Z" class="st3"/>
			</g>
			<g id="shape18-29" v:mID="18" v:groupContext="shape" transform="translate(37.1531,-56.0564)">
				<title>Sheet.18</title>
				<path d="M15.78 159.7 L15.8 157.28 L0 148.12 L8.03 145.81 L25.46 155.97 L15.78 159.7 Z" class="st4"/>
			</g>
			<g id="shape19-32" v:mID="19" v:groupContext="shape" transform="translate(45.8681,-14.0809)">
				<title>Sheet.19</title>
				<path d="M0 148.6 L25 134.08 L25 145.16 L0 159.7 L0 148.6 Z" class="st3"/>
			</g>
			<g id="shape20-35" v:mID="20" v:groupContext="shape" transform="translate(25.2274,-55.4002)">
				<title>Sheet.20</title>
				<path d="M0 146.77 L6.42 144.23 L11.94 147.47 L27.73 156.64 L22.48 159.7 A62.9339 63.3439 0 0 1 0 146.77 Z"
						class="st4"/>
			</g>
			<g id="shape21-38" v:mID="21" v:groupContext="shape">
				<title>Sheet.21</title>
				<path d="M0 140.77 L27.06 156.5 L27.06 159.7 L0 144 L0 140.77 Z" class="st5"/>
			</g>
			<g id="group22-44" transform="translate(2.94717,-4.84819)" v:mID="22" v:groupContext="group">
				<title>Sheet.22</title>
				<g id="shape23-45" v:mID="23" v:groupContext="shape" transform="translate(0,-0.472502)">
					<title>Sheet.23</title>
					<path d="M0 145.2 L1.98 146.38 L3.64 145.29 L1.65 144.11 L0 145.2 Z M2.46 143.54 L4.44 144.72 L6.09 143.64 L4.11
								 142.45 L2.46 143.54 Z M4.91 141.89 L6.9 143.07 L8.55 141.98 L6.57 140.8 L4.91 141.89 Z M7.37 140.23
								 L9.35 141.41 L11.01 140.33 L9.02 139.15 L7.37 140.23 Z M11.06 142.45 L13.04 143.63 L14.69 142.55
								 L12.71 141.37 L11.06 142.45 Z M14.74 144.67 L16.72 145.86 L18.38 144.77 L16.39 143.59 L14.74 144.67
								 Z M18.43 146.89 L20.41 148.08 L22.06 146.99 L20.08 145.81 L18.43 146.89 Z M25.8 151.34 L27.78 152.52
								 L29.43 151.43 L27.45 150.25 L25.8 151.34 Z M29.48 153.56 L31.46 154.74 L33.12 153.65 L31.13 152.47
								 L29.48 153.56 Z M27.02 155.21 L29.01 156.39 L30.66 155.3 L28.68 154.12 L27.02 155.21 Z M23.34 152.99
								 L25.32 154.17 L26.98 153.08 L24.99 151.9 L23.34 152.99 Z M22.11 149.12 L24.09 150.3 L25.75 149.21
								 L23.76 148.03 L22.11 149.12 Z M19.65 150.77 L21.64 151.95 L23.29 150.86 L21.31 149.68 L19.65 150.77
								 Z M15.97 148.55 L17.95 149.73 L19.61 148.64 L17.62 147.46 L15.97 148.55 Z M12.28 146.33 L14.27 147.51
								 L15.92 146.42 L13.94 145.24 L12.28 146.33 Z M8.6 144.11 L10.58 145.29 L12.24 144.2 L10.25 143.02
								 L8.6 144.11 Z M6.14 145.76 L8.13 146.94 L9.78 145.86 L7.8 144.67 L6.14 145.76 Z M9.83 147.98 L11.81
								 149.16 L13.46 148.08 L11.48 146.9 L9.83 147.98 Z M13.51 150.2 L15.5 151.38 L17.15 150.3 L15.17 149.12
								 L13.51 150.2 Z M17.2 152.42 L19.18 153.6 L20.83 152.52 L18.85 151.34 L17.2 152.42 Z M20.88 154.64
								 L22.87 155.82 L24.52 154.74 L22.54 153.56 L20.88 154.64 Z M24.57 156.86 L26.55 158.04 L28.2 156.96
								 L26.22 155.78 L24.57 156.86 Z M22.11 158.52 L24.09 159.7 L25.75 158.61 L23.76 157.43 L22.11 158.52
								 Z M18.43 156.3 L20.41 157.48 L22.06 156.39 L20.08 155.21 L18.43 156.3 Z M7.37 149.64 L16.72 155.26
								 L18.38 154.17 L9.02 148.55 L7.37 149.64 Z M3.69 147.42 L5.67 148.6 L7.32 147.51 L5.34 146.33 L3.69
								 147.42 Z" class="st6"/>
				</g>
				<g id="shape24-47" v:mID="24" v:groupContext="shape" transform="translate(0.000779402,8.52651E-014)">
					<title>Sheet.24</title>
					<path d="M7.37 140.23 L9.36 141.41 L9.36 140.94 L7.37 139.76 L7.37 140.23 Z M11.06 142.45 L13.04 143.64 L13.04
								 143.16 L11.06 141.98 L11.06 142.45 Z M14.74 144.67 L16.72 145.85 L16.72 145.38 L14.74 144.2 L14.74
								 144.67 Z M18.43 146.89 L20.41 148.08 L20.41 147.6 L18.43 146.42 L18.43 146.89 Z M22.11 149.11 L24.09
								 150.3 L24.09 149.82 L22.11 148.64 L22.11 149.11 Z M25.8 151.34 L27.78 152.52 L27.78 152.04 L25.79
								 150.86 L25.8 151.34 Z M9.35 140.94 L9.35 141.41 L11.01 140.33 L11.01 139.85 L9.35 140.94 Z M13.04
								 143.16 L13.04 143.63 L14.69 142.55 L14.69 142.07 L13.04 143.16 Z M16.72 145.38 L16.72 145.85 L18.38
								 144.77 L18.38 144.3 L16.72 145.38 Z M20.41 147.6 L20.41 148.07 L22.06 146.99 L22.06 146.52 L20.41
								 147.6 Z M24.09 149.82 L24.09 150.3 L25.75 149.21 L25.75 148.74 L24.09 149.82 Z M27.78 152.04 L27.78
								 152.52 L29.43 151.43 L29.43 150.96 L27.78 152.04 Z M29.48 153.56 L31.46 154.74 L31.46 154.26 L29.48
								 153.08 L29.48 153.56 Z M31.46 154.26 L31.46 154.74 L33.12 153.65 L33.12 153.18 L31.46 154.26 Z M4.91
								 141.89 L6.9 143.07 L6.9 142.6 L4.91 141.41 L4.91 141.89 Z M8.6 144.11 L10.58 145.29 L10.58 144.82
								 L8.6 143.63 L8.6 144.11 Z M12.28 146.33 L14.27 147.51 L14.27 147.04 L12.28 145.85 L12.28 146.33
								 Z M15.97 148.55 L17.95 149.73 L17.95 149.26 L15.97 148.07 L15.97 148.55 Z M19.65 150.77 L21.64 151.95
								 L21.64 151.48 L19.65 150.3 L19.65 150.77 Z M23.34 152.99 L25.32 154.17 L25.32 153.7 L23.34 152.52
								 L23.34 152.99 Z M6.9 142.59 L6.9 143.07 L8.55 141.98 L8.55 141.51 L6.9 142.59 Z M10.58 144.82 L10.58
								 145.29 L12.24 144.2 L12.24 143.73 L10.58 144.82 Z M14.27 147.04 L14.27 147.51 L15.92 146.42 L15.92
								 145.95 L14.27 147.04 Z M17.95 149.26 L17.95 149.73 L19.61 148.64 L19.61 148.17 L17.95 149.26 Z M21.64
								 151.48 L21.64 151.95 L23.29 150.86 L23.29 150.39 L21.64 151.48 Z M25.32 153.7 L25.32 154.17 L26.98
								 153.08 L26.98 152.61 L25.32 153.7 Z M27.02 155.21 L29.01 156.39 L29.01 155.92 L27.02 154.74 L27.02
								 155.21 Z M29.01 155.92 L29.01 156.39 L30.66 155.3 L30.66 154.83 L29.01 155.92 Z M2.46 143.54 L4.44
								 144.72 L4.44 144.25 L2.46 143.07 L2.46 143.54 Z M6.14 145.76 L8.13 146.94 L8.13 146.47 L6.14 145.29
								 L6.14 145.76 Z M9.83 147.98 L11.81 149.16 L11.81 148.69 L9.83 147.51 L9.83 147.98 Z M13.51 150.2
								 L15.5 151.38 L15.5 150.91 L13.51 149.73 L13.51 150.2 Z M17.2 152.42 L19.18 153.6 L19.18 153.13 L17.2
								 151.95 L17.2 152.42 Z M20.88 154.64 L22.87 155.82 L22.87 155.35 L20.88 154.17 L20.88 154.64 Z M4.44
								 144.25 L4.44 144.72 L6.09 143.63 L6.09 143.16 L4.44 144.25 Z M8.13 146.47 L8.13 146.94 L9.78 145.85
								 L9.78 145.38 L8.13 146.47 Z M11.81 148.69 L11.81 149.16 L13.46 148.08 L13.46 147.6 L11.81 148.69
								 Z M15.5 150.91 L15.5 151.38 L17.15 150.3 L17.15 149.82 L15.5 150.91 Z M19.18 153.13 L19.18 153.6
								 L20.83 152.52 L20.83 152.04 L19.18 153.13 Z M22.87 155.35 L22.87 155.82 L24.52 154.74 L24.52 154.27
								 L22.87 155.35 Z M24.57 156.86 L26.55 158.04 L26.55 157.57 L24.57 156.39 L24.57 156.86 Z M26.55 157.57
								 L26.55 158.04 L28.2 156.96 L28.2 156.49 L26.55 157.57 Z M0 145.19 L1.98 146.38 L1.98 145.9 L0 144.72
								 L0 145.19 Z M3.69 147.42 L5.67 148.6 L5.67 148.12 L3.68 146.94 L3.69 147.42 Z M7.37 149.64 L16.72
								 155.26 L16.72 154.79 L7.37 149.16 L7.37 149.64 Z M18.42 156.3 L20.41 157.48 L20.41 157.01 L18.42
								 155.82 L18.42 156.3 Z M1.98 145.9 L1.98 146.37 L3.64 145.29 L3.64 144.82 L1.98 145.9 Z M5.67 148.12
								 L5.67 148.6 L7.32 147.51 L7.32 147.04 L5.67 148.12 Z M16.72 154.78 L16.72 155.26 L18.38 154.17 L18.38
								 153.7 L16.72 154.78 Z M20.41 157.01 L20.41 157.48 L22.06 156.39 L22.06 155.92 L20.41 157.01 Z M22.11
								 158.52 L24.09 159.7 L24.09 159.23 L22.11 158.04 L22.11 158.52 Z M24.09 159.23 L24.09 159.7 L25.75
								 158.61 L25.75 158.14 L24.09 159.23 Z" class="st7"/>
				</g>
			</g>
			<g id="shape25-49" v:mID="25" v:groupContext="shape" transform="translate(65.0282,-28.4965)">
				<title>Sheet.25</title>
				<path d="M1.71 152.88 L3.14 151.98 L3.14 157.87 L1.71 158.78 L1.71 152.88 Z M0 153.8 L0.79 153.34 L0.79 159.24 L0
							 159.7 L0 153.8 Z" class="st8"/>
			</g>
			<g id="shape26-51" v:mID="26" v:groupContext="shape" transform="translate(19.1499,-14.0809)">
				<title>Sheet.26</title>
				<path d="M28.55 144.23 A51.0927 51.4255 0 0 1 6.08 131.54 L6.08 105.45 A61.9225 62.3259 -180 0 0 28.55 118.38 L28.55
							 144.23 Z M-0 144.23 A61.6634 62.0652 -180 0 0 26.72 159.7 L26.72 148.6 A62.0514 62.4556 0 0 1 -0 133.15
							 L0 144.23 Z" class="st9"/>
				<path d="M28.55 144.23 A51.0927 51.4255 0 0 1 6.08 131.54 L6.08 105.45 A61.9225 62.3259 -180 0 0 28.55 118.38 L28.55
							 144.23" class="st1"/>
				<path d="M1.95 137.77 A36.6775 36.4401 -90 0 0 7.91 142.62" class="st1"/>
				<path d="M1.95 139.39 A36.6775 36.4401 -90 0 0 7.91 144.23" class="st1"/>
				<path d="M1.95 141 A36.6775 36.4401 -90 0 0 7.91 145.85" class="st1"/>
				<path d="M1.95 142.62 A36.6775 36.4401 -90 0 0 7.91 147.46" class="st1"/>
				<path d="M23.51 108.09 L34.06 114.22" class="st1"/>
				<path d="M24.88 107.71 L35.43 113.84" class="st1"/>
				<path d="M26.26 107.33 L36.81 113.46" class="st1"/>
				<path d="M27.64 106.94 L38.19 113.07" class="st1"/>
				<path d="M-0 144.23 A61.6634 62.0652 -180 0 0 26.72 159.7 L26.72 148.6 A62.0514 62.4556 0 0 1 -0 133.15 L0 144.23"
						class="st1"/>
			</g>
			<g id="shape27-64" v:mID="27" v:groupContext="shape" transform="translate(27.9795,-34.2045)">
				<title>Sheet.27</title>
				<path d="M0 131.35 L0 150.04 A52.8389 52.4969 -90.11 0 0 16.28 159.7" class="st10"/>
			</g>
			<g id="shape28-68" v:mID="28" v:groupContext="shape">
				<title>Sheet.28</title>
				<path d="M45.87 145.62 L70.87 131.07 L70.87 119.99 L62.61 115.15 L62.61 99.91 L45.18 89.76 L37.15 92.06 L31.65 88.83
							 L25.23 91.37 L25.23 115.61 L19.15 119.07 L19.15 130.15 A63.1339 62.7253 -90 0 0 45.87 145.62 Z M0 140.77
							 L12.16 132.23 L39.68 148.16 L39.68 152.31 L27.06 159.7 L0 144 L0 140.77 Z" class="st11"/>
			</g>
			<g id="group29-70" transform="translate(33.2543,-18.0051)" v:mID="29" v:groupContext="group">
				<title>Sheet.29</title>
				<g id="shape30-71" v:mID="30" v:groupContext="shape" transform="translate(2.2227,-5.68434E-014)">
					<title>Sheet.30</title>
					<path d="M0.76 154.85 L8.56 157.97 a0.90402 0.909909 0 0 1 -0.22934 1.73126 L0.76 156.7 a0.933946 0.940031 0
								 0 1 -1.34337E-014 -1.84667 Z" class="st12"/>
				</g>
				<g id="shape31-73" v:mID="31" v:groupContext="shape" transform="translate(5.59552E-014,-3.23168)">
					<title>Sheet.31</title>
					<path d="M0 152.77 L11.24 157.39 L11.24 159.7 L0 155.31 L0 152.77 Z" class="st13"/>
				</g>
				<g id="shape32-75" v:mID="32" v:groupContext="shape" transform="translate(5.59552E-014,-3.23168)">
					<title>Sheet.32</title>
					<path d="M0 152.77 L11.24 157.39 L11.24 159.7" class="st14"/>
				</g>
				<g id="shape33-78" v:mID="33" v:groupContext="shape" transform="translate(5.59552E-014,-4.61669)">
					<title>Sheet.33</title>
					<path d="M0 155.08 L11.24 159.7" class="st14"/>
				</g>
				<g id="shape34-81" v:mID="34" v:groupContext="shape" transform="translate(-5.79536E-014,-3.23168)">
					<title>Sheet.34</title>
					<path d="M0 152.77 L0 155.31 L11.24 159.7" class="st15"/>
				</g>
			</g>
			<g id="shape35-84" v:mID="35" v:groupContext="shape" transform="translate(-37.982,-10.3671) rotate(-30)">
				<title>Sheet.35</title>
				<ellipse cx="0.769099" cy="158.67" rx="0.769099" ry="1.0288" class="st16"/>
			</g>
			<g id="shape36-88" v:mID="36" v:groupContext="shape" transform="translate(27.9795,-34.2045)">
				<title>Sheet.36</title>
				<path d="M0.69 149.61 L0.69 132.04 L0 131.35 A39.8543 39.5964 -90.48 0 0 16.28 141.04 L16.28 159.7 L16.28 158.86
							 A50.3455 50.0196 91.46 0 1 0.69 149.61 Z" class="st17"/>
			</g>
		</g>
		<g id="shape1-96" v:mID="1" v:groupContext="shape" transform="translate(70.9488,-3.12)">
			<title>Cloud</title>
			<v:userDefs>
				<v:ud v:nameU="SolSH"/>
				<v:ud v:nameU="ShapeType" v:val="VT0(1):26"/>
				<v:ud v:nameU="shapelook" v:val="VT0(2):26"/>
				<v:ud v:nameU="visVersion" v:val="VT0(12):26"/>
			</v:userDefs>
			<path d="M42.12 86.65 A17.947 21.7722 0 0 1 73.78 86.36 A13.1727 15.9804 0 0 1 96.44 91.65 A13.2479 16.0716 0 0 1 112.08
						 99.75 A9.99352 12.1236 0 0 1 106.77 114.46 A11.2858 13.6912 0 0 1 98.11 139.73 A20.3227 24.6543 0 0 1 69.81
						 152.44 A25.5953 31.0508 0 0 1 34.3 149.36 A14.0856 17.0878 0 0 1 9.52 135.58 A10.1783 12.3477 0 0 1 9.57
						 110.93 A8.7088 10.565 0 1 1 16.59 91.61 A13.6526 16.5625 0 0 1 42.12 86.65 Z" class="st18"/>
		</g>
		<g id="group2-98" transform="translate(198.508,-68.1473)" v:mID="2" v:groupContext="group">
			<v:custProps>
				<v:cp v:nameU="Manufacturer" v:lbl="Manufacturer" v:type="0" v:sortKey="Equipment" v:invis="false" v:langID="1033"/>
				<v:cp v:nameU="ProductNumber" v:lbl="Product Number" v:type="0" v:sortKey="Equipment" v:invis="false"
						v:langID="1033"/>
				<v:cp v:nameU="PartNumber" v:lbl="Part Number" v:type="0" v:sortKey="Equipment" v:invis="false" v:langID="1033"/>
				<v:cp v:nameU="ProductDescription" v:lbl="Product Description" v:type="0" v:sortKey="Equipment" v:invis="false"
						v:langID="1033"/>
				<v:cp v:nameU="AssetNumber" v:lbl="Asset Number" v:type="0" v:sortKey="Asset" v:invis="false" v:langID="1033"/>
				<v:cp v:nameU="SerialNumber" v:lbl="Serial Number" v:type="0" v:sortKey="Asset" v:invis="false" v:langID="1033"/>
				<v:cp v:nameU="Location" v:lbl="Location" v:type="0" v:sortKey="Asset" v:invis="false" v:langID="1033"/>
				<v:cp v:nameU="Building" v:lbl="Building" v:type="0" v:sortKey="Asset" v:invis="false" v:langID="1033"/>
				<v:cp v:nameU="Room" v:lbl="Room" v:type="0" v:sortKey="Asset" v:invis="false" v:langID="1033"/>
				<v:cp v:nameU="Department" v:lbl="Department" v:langID="1033"/>
				<v:cp v:nameU="ShapeClass" v:lbl="ShapeClass" v:type="0" v:invis="true" v:ask="false" v:langID="1033"
						v:val="VT4(Equipment)"/>
				<v:cp v:nameU="ShapeType" v:lbl="ShapeType" v:type="0" v:invis="true" v:ask="false" v:langID="1033"
						v:val="VT4(Server)"/>
				<v:cp v:nameU="SubShapeType" v:lbl="SubShapeType" v:type="0" v:invis="true" v:ask="false" v:langID="1033"
						v:val="VT4(Web)"/>
				<v:cp v:nameU="NetworkName" v:lbl="Network Name" v:type="0" v:sortKey="Network" v:invis="false" v:ask="false"
						v:langID="1033"/>
				<v:cp v:nameU="IPAddress" v:lbl="IP Address" v:type="0" v:sortKey="Network" v:invis="false" v:ask="false"
						v:langID="1033"/>
				<v:cp v:nameU="SubnetMask" v:lbl="Subnet Mask" v:type="0" v:sortKey="Network" v:invis="false" v:ask="false"
						v:langID="1033"/>
				<v:cp v:nameU="AdminInterface" v:lbl="Administrative Interface" v:type="0" v:sortKey="Network" v:invis="false"
						v:ask="false" v:langID="1033"/>
				<v:cp v:nameU="NumberofPorts" v:lbl="Number of Ports" v:type="0" v:sortKey="Network" v:invis="false" v:ask="false"
						v:langID="1033"/>
				<v:cp v:nameU="MACAddress" v:lbl="MAC Address" v:type="0" v:sortKey="Network" v:invis="false" v:ask="false"
						v:langID="1033"/>
				<v:cp v:nameU="CommunityString" v:lbl="Community String" v:type="0" v:sortKey="Network" v:invis="false"
						v:ask="false" v:langID="1033"/>
				<v:cp v:nameU="NetworkDescription" v:lbl="Network Description" v:type="0" v:sortKey="Network" v:invis="false"
						v:ask="false" v:langID="1033"/>
				<v:cp v:nameU="HardDriveSize" v:lbl="Hard Drive Capacity" v:type="0" v:sortKey="Workstation" v:invis="false"
						v:ask="false" v:langID="1033"/>
				<v:cp v:nameU="CPU" v:lbl="CPU" v:type="0" v:sortKey="Workstation" v:invis="false" v:ask="false" v:langID="1033"/>
				<v:cp v:nameU="Memory" v:lbl="Memory" v:type="0" v:sortKey="Workstation" v:invis="false" v:ask="false"
						v:langID="1033"/>
				<v:cp v:nameU="OperatingSystem" v:lbl="Operating System" v:type="0" v:sortKey="Workstation" v:invis="false"
						v:ask="false" v:langID="1033"/>
			</v:custProps>
			<v:userDefs>
				<v:ud v:nameU="HasText" v:val="VT0(0):5"/>
				<v:ud v:nameU="SolSH" v:val="VT14({BF0433D9-CD73-4EB5-8390-8653BE590246}):41"/>
				<v:ud v:nameU="ShapeClass" v:val="VT0(5):26"/>
				<v:ud v:nameU="ShapeType" v:val="VT0(24):26"/>
				<v:ud v:nameU="SubShapeType" v:val="VT0(74):26"/>
				<v:ud v:nameU="visLegendShape" v:val="VT0(2):26"/>
				<v:ud v:nameU="visVersion" v:prompt="" v:val="VT0(12):26"/>
			</v:userDefs>
			<title>Web server</title>
			<g id="shape3-99" v:mID="3" v:groupContext="shape">
				<title>Sheet.3</title>
				<path d="M58.06 144.86 A8.22566 7.77849 -178.74 0 0 57.84 142.89 A12.7246 12.3712 -180 0 0 57.61 141.93 L65.2 137.84
							 L65.2 82.58 L40.12 69.15 L0 91.01 L0.01 147.14 A42.2138 39.4221 -180 0 0 24.76 159.7 L35.98 153.58 A12.7246
							 12.3712 -180 0 0 55.23 153 A12.7246 12.3712 -180 0 0 56.55 151.07 A12.5083 11.8284 -1.36 0 0 58.06 144.86
							 Z M11.13 99.75 A43.5655 40.6844 -180 0 0 24.76 104.59 A43.0789 40.23 0 0 1 11.13 99.75 Z" class="st2"/>
			</g>
			<g id="shape4-101" v:mID="4" v:groupContext="shape" transform="translate(0,-55.1099)">
				<title>Sheet.4</title>
				<path d="M24.74 159.7 L65.2 137.69 L40.12 124.26 L0 146.12 A43.5655 40.6844 -180 0 0 24.76 159.7 L24.74 159.7 Z"
						class="st19"/>
				<path d="M24.74 159.7 L65.2 137.69 L40.12 124.26 L0 146.12 A43.5655 40.6844 -180 0 0 24.76 159.7" class="st15"/>
			</g>
			<g id="shape5-106" v:mID="5" v:groupContext="shape" transform="translate(0.0148142,0)">
				<title>Sheet.5</title>
				<path d="M24.74 104.59 A43.0789 40.23 0 0 1 -0 90.94 L0 147.14 A42.2138 39.4221 -180 0 0 24.74 159.7 L24.73 104.59
							 L24.74 104.59 Z" class="st20"/>
				<path d="M24.74 104.59 A43.0789 40.23 0 0 1 -0 90.94 L0 147.14 A42.2138 39.4221 -180 0 0 24.74 159.7 L24.73 104.59"
						class="st15"/>
			</g>
			<g id="shape6-113" v:mID="6" v:groupContext="shape" transform="translate(24.7414,-0.0622862)">
				<title>Sheet.6</title>
				<path d="M0 104.65 L0 159.7 L40.46 137.9 L40.46 82.64 L0 104.65 Z" class="st21"/>
			</g>
			<g id="shape7-119" v:mID="7" v:groupContext="shape" transform="translate(4.39648E-014,-0.00199606)">
				<title>Sheet.7</title>
				<path d="M65.2 82.58 L40.12 69.15 L0 91.01 L0.01 147.14 A42.2138 39.4221 -180 0 0 24.76 159.7 L65.2 137.84 L65.2
							 82.58" class="st22"/>
			</g>
			<g id="shape8-122" v:mID="8" v:groupContext="shape" transform="translate(-44.1327,-19.4783) rotate(-20)">
				<title>Sheet.8</title>
				<ellipse cx="1.89379" cy="157.12" rx="1.89379" ry="2.57876" class="st23"/>
			</g>
			<g id="shape9-128" v:mID="9" v:groupContext="shape" transform="translate(4.01211,-7.9639)">
				<title>Sheet.9</title>
				<path d="M-0 144.4 A48.3261 44.1378 -96.44 0 0 16.72 152.99" class="st24"/>
				<path d="M0 147.76 A48.3261 44.1378 -96.44 0 0 16.72 156.34" class="st24"/>
				<path d="M-0 151.11 A48.3261 44.1378 -96.44 0 0 16.72 159.7" class="st24"/>
			</g>
			<g id="group10-135" transform="translate(3.34343,-39.031)" v:mID="10" v:groupContext="group">
				<title>Sheet.10</title>
				<g id="shape37-136" v:mID="37" v:groupContext="shape" transform="translate(0,-9.03339)">
					<title>Sheet.37</title>
					<path d="M0.6 151.11 A42.1643 39.3758 -180 0 0 17.31 159.7 a0.856753 0.800094 -180 0 0 3.90799E-014 -1.56116
								 A41.0171 38.3045 0 0 1 0.93 149.8 a0.55505 0.518343 -180 0 0 -0.926647 0.440653 A1.20971 1.1297
								 -180 0 0 0.6 151.11 Z" class="st25"/>
				</g>
				<g id="shape38-138" v:mID="38" v:groupContext="shape" transform="translate(5.31659,-11.0012)">
					<title>Sheet.38</title>
					<path d="M5.14 159.63 A6.26505 3.81392 -90.9 0 0 0.13 157.14 A4.1221 2.05514 -180 0 0 5.14 159.63 Z"
							class="st26"/>
				</g>
				<g id="shape39-143" v:mID="39" v:groupContext="shape" transform="translate(0.668686,-0.0780579)">
					<title>Sheet.39</title>
					<path d="M0 146.74 L0 151.11 A45.356 42.3565 -180 0 0 16.72 159.7 L16.72 155.33 A46.8404 43.7427 0 0 1 0 146.74
								 Z" class="st27"/>
				</g>
				<g id="shape40-151" v:mID="40" v:groupContext="shape" transform="translate(0.668686,-2.49785)">
					<title>Sheet.40</title>
					<path d="M0 151.11 A41.0523 38.3374 -180 0 0 16.72 159.7 L16.72 158.61 A45.3742 42.3735 0 0 1 0 150.02 L0 151.11
								 Z" class="st28"/>
				</g>
				<g id="shape41-153" v:mID="41" v:groupContext="shape" transform="translate(0.668686,-0.156116)">
					<title>Sheet.41</title>
					<path d="M0 146.74 L0 151.11 A45.356 42.3565 -180 0 0 16.72 159.7" class="st15"/>
				</g>
				<g id="shape42-156" v:mID="42" v:groupContext="shape" transform="translate(0.668686,0)">
					<title>Sheet.42</title>
					<path d="M16.72 159.7 L16.72 155.33 A46.8404 43.7427 0 0 1 0 146.74" class="st14"/>
				</g>
			</g>
			<g id="group43-160" transform="translate(32.6183,-2.10984)" v:mID="43" v:groupContext="group">
				<v:userDefs>
					<v:ud v:nameU="IsVisable" v:val="VT0(1):5"/>
				</v:userDefs>
				<title>Sheet.43</title>
				<g id="group44-161" transform="translate(0,-0.00656387)" v:mID="44" v:groupContext="group">
					<title>Sheet.44</title>
					<g id="shape45-162" v:mID="45" v:groupContext="shape">
						<title>Sheet.45</title>
						<ellipse cx="12.7246" cy="147.327" rx="12.7246" ry="12.3712" class="st29"/>
						<ellipse cx="12.7246" cy="147.327" rx="12.7246" ry="12.3712" class="st30"/>
					</g>
					<g id="shape46-167" v:mID="46" v:groupContext="shape" transform="translate(1.05841,-0.277552)">
						<title>Sheet.46</title>
						<path d="M10.08 159.7 L11.56 155.91 A6.70844 6.34682 -3.94 0 0 13.97 152.03 A3.08709 2.91911 -180 0 0 11.61
									 149.7 A3.3296 3.14842 -180 0 0 9.23 151.08 L8.64 150.17 A2.52545 2.4553 -180 0 0 10.33 148.25
									 A4.73475 4.47712 0 0 1 8.42 146.85 L10.53 145.17 L11.07 142.93 L9.49 141.93 L10.49 140.73 L8.62
									 139.44 L9.12 138.03 L12.06 138.84 L11.94 141.18 L13.1 141.52 L14.67 140.81 L15.92 141.8 L17.44
									 145.21 L16.97 147.09 L15.91 147.77 L16.36 149.04 A2.13913 2.02273 -180 0 0 19.58 150.34 A2.45181
									 2.3184 0 0 1 20.97 152.5 L21.52 155.36 A12.5083 11.8284 -1.36 0 0 24.39 147.25 A8.22566 7.77849
									 -178.74 0 0 22.99 142.73 A8.95868 8.4712 -180 0 0 20.81 139.66 A2.4419 2.30902 -180 0 0 19.02
									 141.32 L19.56 142.98 A1.62191 1.53365 0 0 1 17.6 142.88 L17.34 145.34 A19.8081 18.7303 -180
									 0 0 16.01 142.12 L17.65 141.48 L17.04 140.57 L15.92 140.32 L15.96 139.58 L16.49 136.71 L13.73
									 135.94 L12.36 136.66 L11.45 135.74 L9.84 135.59 L6.39 137.45 L7.99 138.41 L6.82 140.19 A1.69834
									 1.60592 0 0 1 8.3 142.03 a0.640764 0.605897 0 0 1 -0.895716 0.695139 a1.01275 0.957643 0 0 1
									 -1.38508 -1.02617 L6.49 139.75 L5.93 137.85 L3.46 138.24 L3.53 139.43 L2.96 139.93 L1.79 139.83
									 A9.99569 9.71804 -180 0 0 0 142.71 L1.38 143.23 A4.7718 4.51215 0 0 1 2.42 146.45 A4.44961 4.20749
									 -180 0 0 6.67 148.68 A3.17699 3.00412 0 0 1 8.86 151.44 A1.72928 1.63518 -180 0 0 8.54 153.55
									 L10.05 154.28 A2.02261 1.91256 0 0 1 9.23 156.02 A5.4883 5.18966 -180 0 0 10.08 159.7 Z"
								class="st31"/>
					</g>
				</g>
				<g id="shape47-170" v:mID="47" v:groupContext="shape" transform="translate(0.00343194,0)">
					<title>Sheet.47</title>
					<ellipse cx="12.725" cy="147.329" rx="12.725" ry="12.3693" class="st32"/>
					<ellipse cx="12.725" cy="147.329" rx="12.725" ry="12.3693" class="st22"/>
				</g>
			</g>
		</g>
	</g>
</svg>
